<svg width="845" height="251" viewBox="0 0 845 251" fill="none" xmlns="http://www.w3.org/2000/svg">
<rect width="845" height="251" rx="5" fill="#D3D3D3"/>
<circle cx="19" cy="233" r="9.5" fill="#F5F5F5" stroke="black"/>
<path d="M106.501 101.896V146.104H111.037V151H96.2049V146.104H100.597V125.512H80.5809V146.104H84.9729V151H70.1409V146.104H74.6769V101.896H70.1409V97H84.9729V101.896H80.5809V120.688H100.597V101.896H96.2049V97H111.037V101.896H106.501ZM119.334 122.056C119.334 117.304 121.806 114.928 126.75 114.928H138.918C141.27 114.928 142.974 115.384 144.03 116.296C145.086 117.208 145.614 118.888 145.614 121.336V128.032L125.094 140.992V146.104H139.926V141.928H145.614V145.744C145.614 147.184 145.158 148.432 144.246 149.488C143.382 150.496 141.918 151 139.854 151H125.094C123.03 151 121.542 150.496 120.63 149.488C119.766 148.432 119.334 147.184 119.334 145.744V122.056ZM125.094 135.16L139.854 125.872V119.896H125.094V135.16ZM163.243 146.104H167.923V151H152.803V146.104H157.339V101.896H152.803V97H163.243V146.104ZM185.532 146.104H190.212V151H175.092V146.104H179.628V101.896H175.092V97H185.532V146.104ZM203.357 151C200.909 151 199.181 150.448 198.173 149.344C197.165 148.192 196.661 146.608 196.661 144.592V121.408C196.661 119.488 197.093 117.952 197.957 116.8C198.869 115.6 200.669 115 203.357 115H216.677C219.317 115 221.093 115.6 222.005 116.8C222.917 117.952 223.373 119.488 223.373 121.408V144.592C223.373 146.608 222.869 148.192 221.861 149.344C220.853 150.448 219.125 151 216.677 151H203.357ZM202.493 146.104H217.541V119.896H202.493V146.104ZM234.114 137.104V98.656H240.018V137.104H234.114ZM237.138 143.872C238.146 143.872 238.986 144.256 239.658 145.024C240.378 145.792 240.738 146.68 240.738 147.688C240.738 148.696 240.378 149.56 239.658 150.28C238.986 150.952 238.146 151.288 237.138 151.288C236.13 151.288 235.266 150.952 234.546 150.28C233.826 149.56 233.466 148.696 233.466 147.688C233.466 146.68 233.826 145.792 234.546 145.024C235.314 144.256 236.178 143.872 237.138 143.872ZM289.294 146.104H293.974V151H278.854V146.104H283.39V101.896H278.854V97H293.974V101.896H289.294V146.104ZM305.142 114.28H299.886L305.286 97H310.614L305.142 114.28ZM358.189 114.28C361.933 114.28 363.805 116.128 363.805 119.824V146.104H368.413V151H354.517V146.104H357.973V119.32L344.797 127.528V146.104H348.325V151H335.437V146.104H338.893L338.965 145.816V119.248L325.717 127.528V146.104H329.245V151H315.349V146.104H319.885V119.824H315.349V115H325.717V121.84L336.589 115C337.357 114.52 338.221 114.28 339.181 114.28C342.925 114.28 344.797 116.128 344.797 119.824V121.768L355.597 115C356.365 114.52 357.229 114.28 358.189 114.28ZM443.58 101.896H439.044V151H431.988L411.612 108.952V146.104H416.292V151H401.172V146.104H405.708V101.896H401.172V97H412.26L433.14 139.912V101.896H428.46V97H443.58V101.896ZM480.858 146.104V151H455.802C453.354 151 451.698 150.52 450.834 149.56C450.066 148.696 449.682 147.064 449.682 144.664V142C449.682 140.272 449.898 139.096 450.33 138.472C450.954 137.56 452.37 136.432 454.578 135.088L470.418 125.224V119.896H456.306V124.072H451.698V115H469.698C472.146 115 473.85 115.528 474.81 116.584C475.818 117.64 476.322 119.176 476.322 121.192V146.104H480.858ZM470.418 130.984L455.442 140.344V146.104H470.418V130.984ZM487.35 122.056C487.35 117.304 489.822 114.928 494.766 114.928H506.934C509.286 114.928 510.99 115.384 512.046 116.296C513.102 117.208 513.63 118.888 513.63 121.336V128.032L493.11 140.992V146.104H507.942V141.928H513.63V145.744C513.63 147.184 513.174 148.432 512.262 149.488C511.398 150.496 509.934 151 507.87 151H493.11C491.046 151 489.558 150.496 488.646 149.488C487.782 148.432 487.35 147.184 487.35 145.744V122.056ZM493.11 135.16L507.87 125.872V119.896H493.11V135.16ZM520.819 122.056C520.819 117.304 523.291 114.928 528.235 114.928H540.403C542.755 114.928 544.459 115.384 545.515 116.296C546.571 117.208 547.099 118.888 547.099 121.336V128.032L526.579 140.992V146.104H541.411V141.928H547.099V145.744C547.099 147.184 546.643 148.432 545.731 149.488C544.867 150.496 543.403 151 541.339 151H526.579C524.515 151 523.027 150.496 522.115 149.488C521.251 148.432 520.819 147.184 520.819 145.744V122.056ZM526.579 135.16L541.339 125.872V119.896H526.579V135.16ZM596.408 114.28C600.152 114.28 602.024 116.128 602.024 119.824V146.104H606.632V151H592.736V146.104H596.192V119.32L583.016 127.528V146.104H586.544V151H573.656V146.104H577.112L577.184 145.816V119.248L563.936 127.528V146.104H567.464V151H553.568V146.104H558.104V119.824H553.568V115H563.936V121.84L574.808 115C575.576 114.52 576.44 114.28 577.4 114.28C581.144 114.28 583.016 116.128 583.016 119.824V121.768L593.816 115C594.584 114.52 595.448 114.28 596.408 114.28Z" fill="#E5383B"/>
<g clip-path="url(#clip0_19_13)">
<path fill-rule="evenodd" clip-rule="evenodd" d="M720.854 77C693.839 77 672 99 672 126.217C672 147.973 685.993 166.389 705.405 172.907C707.832 173.397 708.721 171.848 708.721 170.545C708.721 169.404 708.641 165.493 708.641 161.418C695.051 164.352 692.221 155.551 692.221 155.551C690.037 149.847 686.801 148.381 686.801 148.381C682.353 145.366 687.125 145.366 687.125 145.366C692.059 145.692 694.648 150.418 694.648 150.418C699.015 157.914 706.052 155.796 708.883 154.492C709.287 151.314 710.582 149.114 711.957 147.892C701.118 146.751 689.714 142.514 689.714 123.609C689.714 118.231 691.654 113.831 694.728 110.409C694.243 109.187 692.544 104.134 695.214 97.371C695.214 97.371 699.339 96.067 708.64 102.423C712.622 101.346 716.729 100.798 720.854 100.793C724.979 100.793 729.184 101.364 733.067 102.423C742.369 96.067 746.494 97.371 746.494 97.371C749.164 104.134 747.464 109.187 746.979 110.409C750.134 113.831 751.994 118.231 751.994 123.609C751.994 142.514 740.59 146.669 729.67 147.892C731.45 149.44 732.986 152.373 732.986 157.018C732.986 163.618 732.906 168.915 732.906 170.544C732.906 171.848 733.796 173.397 736.222 172.908C755.634 166.388 769.627 147.973 769.627 126.217C769.707 99 747.788 77 720.854 77Z" fill="#E5383B"/>
</g>
<circle cx="19" cy="22" r="9.5" fill="#F5F5F5" stroke="black"/>
<circle cx="19" cy="22" r="9.5" fill="#F5F5F5" stroke="black"/>
<circle cx="827" cy="233" r="9.5" fill="#F5F5F5" stroke="black"/>
<circle cx="827" cy="22" r="9.5" fill="#F5F5F5" stroke="black"/>
<defs>
<clipPath id="clip0_19_13">
<rect width="98" height="96" fill="white" transform="translate(672 77)"/>
</clipPath>
</defs>
</svg>
